<svg width="513" height="343" viewBox="0 0 513 343" fill="none" xmlns="http://www.w3.org/2000/svg">
<g clip-path="url(#clip0_3_2264)">
<path d="M0 0.961914H513V342.955H0V0.961914Z" fill="#D80027"/>
<path d="M0 238.872H513V342.954H0V238.872Z" fill="#6DA544"/>
<path d="M0 0.961914H513V105.681H0V0.961914Z" fill="#338AF3"/>
<path d="M0 126.747H513V216.578H0V126.747Z" fill="white"/>
<path d="M0 0.961914H513V105.681H0V0.961914Z" fill="#338AF3"/>
<path d="M57.3379 53.4562C57.3379 37.441 68.5939 24.0599 83.6252 20.7785C81.2704 20.2626 78.8669 20.0016 76.4562 20C57.9782 20 43 34.9782 43 53.4562C43 71.9342 57.9782 86.9124 76.4562 86.9124C78.919 86.9124 81.3157 86.6389 83.6252 86.1339C68.5939 82.8525 57.3379 69.4714 57.3379 53.4562ZM103.398 68.6629L105.663 75.6335H112.992L107.063 79.9429L109.328 86.9124L103.398 82.604L97.4682 86.9124L99.7336 79.9429L93.804 75.6335H101.133L103.398 68.6629ZM126.791 68.6629L129.056 75.6335H136.385L130.455 79.9429L132.721 86.9124L126.791 82.604L120.862 86.9124L123.126 79.9429L117.198 75.6335H124.526L126.791 68.6629ZM150.184 68.6629L152.448 75.6335H159.778L153.849 79.9429L156.113 86.9124L150.184 82.604L144.254 86.9124L146.519 79.9429L140.589 75.6335H147.919L150.184 68.6629ZM173.577 68.6629L175.843 75.6335H183.172L177.242 79.9429L179.507 86.9124L173.577 82.604L167.647 86.9124L169.913 79.9429L163.983 75.6335H171.311L173.577 68.6629ZM196.97 68.6629L199.235 75.6335H206.564L200.634 79.9429L202.9 86.9124L196.97 82.604L191.041 86.9124L193.305 79.9429L187.376 75.6335H194.705L196.97 68.6629ZM126.791 44.3314L129.056 51.301H136.385L130.455 55.6094L132.721 62.58L126.791 58.2726L120.862 62.58L123.126 55.6094L117.198 51.301H124.526L126.791 44.3314ZM150.184 44.3314L152.448 51.301H159.778L153.849 55.6094L156.113 62.58L150.184 58.2726L144.254 62.58L146.519 55.6094L140.589 51.301H147.919L150.184 44.3314ZM173.577 44.3314L175.843 51.301H183.172L177.242 55.6094L179.507 62.58L173.577 58.2726L167.647 62.58L169.913 55.6094L163.983 51.301H171.311L173.577 44.3314ZM196.97 44.3314L199.235 51.301H206.564L200.634 55.6094L202.9 62.58L196.97 58.2726L191.041 62.58L193.305 55.6094L187.376 51.301H194.705L196.97 44.3314ZM150.184 20L152.448 26.9696H159.778L153.849 31.278L156.113 38.2486L150.184 33.9402L144.254 38.2486L146.519 31.278L140.589 26.9696H147.919L150.184 20ZM173.577 20L175.843 26.9696H183.172L177.242 31.278L179.507 38.2486L173.577 33.9402L167.647 38.2486L169.913 31.278L163.983 26.9696H171.311L173.577 20ZM196.97 20L199.235 26.9696H206.564L200.634 31.278L202.9 38.2486L196.97 33.9402L191.041 38.2486L193.305 31.278L187.376 26.9696H194.705L196.97 20Z" fill="white"/>
</g>
<defs>
<clipPath id="clip0_3_2264">
<rect width="513" height="342" fill="white" transform="translate(0 0.958008)"/>
</clipPath>
</defs>
</svg>
