<svg width="12" height="7" viewBox="0 0 12 7" fill="none" xmlns="http://www.w3.org/2000/svg">
<path fill-rule="evenodd" clip-rule="evenodd" d="M7.49029 1.39972C7.29139 1.39972 7.10064 1.32598 6.96 1.19474C6.81936 1.06349 6.74034 0.885474 6.74034 0.69986C6.74034 0.514246 6.81936 0.336234 6.96 0.204984C7.10064 0.0737352 7.29139 0 7.49029 0H11.24C11.4389 0 11.6297 0.0737352 11.7703 0.204984C11.911 0.336234 11.99 0.514246 11.99 0.69986V4.19916C11.99 4.38477 11.911 4.56279 11.7703 4.69404C11.6297 4.82528 11.4389 4.89902 11.24 4.89902C11.0411 4.89902 10.8504 4.82528 10.7098 4.69404C10.5691 4.56279 10.4901 4.38477 10.4901 4.19916V2.38932L7.27056 5.39382C7.12992 5.52502 6.9392 5.59873 6.74034 5.59873C6.54148 5.59873 6.35076 5.52502 6.21013 5.39382L4.49049 3.78904L1.27095 6.79354C1.12951 6.92103 0.940069 6.99157 0.743434 6.98997C0.546799 6.98838 0.358703 6.91478 0.219656 6.78502C0.0806086 6.65526 0.00173705 6.47972 2.83501e-05 6.29622C-0.00168035 6.11272 0.0739104 5.93593 0.21052 5.80394L3.96027 2.30464C4.10091 2.17344 4.29163 2.09973 4.49049 2.09973C4.68935 2.09973 4.88007 2.17344 5.02071 2.30464L6.74034 3.90942L9.42967 1.39972H7.49029Z" fill="#48920E"/>
</svg>
