<svg width="12" height="7" viewBox="0 0 12 7" fill="none" xmlns="http://www.w3.org/2000/svg">
<path fill-rule="evenodd" clip-rule="evenodd" d="M7.49029 5.59028C7.29139 5.59028 7.10064 5.66401 6.96 5.79526C6.81936 5.92651 6.74034 6.10453 6.74034 6.29014C6.74034 6.47575 6.81936 6.65377 6.96 6.78502C7.10064 6.91626 7.29139 6.99 7.49029 6.99H11.24C11.4389 6.99 11.6297 6.91626 11.7703 6.78502C11.911 6.65377 11.99 6.47575 11.99 6.29014V2.79084C11.99 2.60523 11.911 2.42721 11.7703 2.29596C11.6297 2.16472 11.4389 2.09098 11.24 2.09098C11.0411 2.09098 10.8504 2.16472 10.7098 2.29596C10.5691 2.42721 10.4901 2.60523 10.4901 2.79084V4.60068L7.27056 1.59618C7.12992 1.46498 6.9392 1.39127 6.74034 1.39127C6.54148 1.39127 6.35076 1.46498 6.21013 1.59618L4.49049 3.20096L1.27095 0.196459C1.12951 0.0689741 0.940069 -0.00156812 0.743434 2.64564e-05C0.546799 0.00162103 0.358703 0.0752247 0.219656 0.204984C0.0806086 0.334744 0.00173705 0.510278 2.83501e-05 0.693779C-0.00168035 0.87728 0.0739104 1.05407 0.21052 1.18606L3.96027 4.68536C4.10091 4.81656 4.29163 4.89027 4.49049 4.89027C4.68935 4.89027 4.88007 4.81656 5.02071 4.68536L6.74034 3.08058L9.42967 5.59028H7.49029Z" fill="#BA3939"/>
</svg>
