<svg width="24" height="24" viewBox="0 0 24 24" fill="none" xmlns="http://www.w3.org/2000/svg">
<path d="M19 10.17C19.0005 10.3194 18.9675 10.467 18.9035 10.602C18.8395 10.737 18.746 10.8559 18.63 10.95L12.63 15.78C12.4511 15.9271 12.2266 16.0075 11.995 16.0075C11.7634 16.0075 11.5389 15.9271 11.36 15.78L5.36 10.78C5.15578 10.6103 5.02736 10.3664 5.00298 10.1019C4.9786 9.8375 5.06026 9.57422 5.23 9.37C5.39974 9.16578 5.64365 9.03736 5.90808 9.01298C6.1725 8.9886 6.43578 9.07026 6.64 9.24L12 13.71L17.36 9.39C17.5068 9.26772 17.6855 9.19004 17.8751 9.16616C18.0646 9.14228 18.257 9.1732 18.4296 9.25525C18.6021 9.33731 18.7475 9.46707 18.8486 9.62918C18.9497 9.79129 19.0022 9.97897 19 10.17Z" fill="black"/>
</svg>
