<svg width="58" height="67" viewBox="0 0 58 67" fill="none" xmlns="http://www.w3.org/2000/svg">
<path d="M57.5801 39.1249C57.5801 46.5178 54.5524 53.608 49.1631 58.8356C43.7737 64.0632 36.4642 67 28.8425 67C21.2209 67 13.9114 64.0632 8.52202 58.8356C3.13268 53.608 0.104981 46.5178 0.10498 39.1249C0.10498 32.1304 3.19115 24.0702 9.27914 15.1693C9.46076 14.9037 9.6946 14.6754 9.96727 14.4976C10.24 14.3197 10.5461 14.1958 10.8682 14.1329C11.1903 14.0699 11.5221 14.0693 11.8445 14.1308C12.1669 14.1924 12.4735 14.3151 12.747 14.4918L22.8289 21.0115L32.4654 1.38199C32.6372 1.03177 32.8932 0.726677 33.2118 0.492341C33.5305 0.258005 33.9025 0.101271 34.2965 0.0353068C34.6905 -0.0306569 35.0951 -0.00392323 35.4763 0.113261C35.8575 0.230446 36.2041 0.434659 36.4871 0.708742C41.0926 5.16815 46.3512 10.5777 50.4354 16.8863C55.2427 24.3126 57.5798 31.5868 57.5798 39.1246L57.5801 39.1249Z" fill="#00EDDF"/>
<path d="M28.8425 67C36.4642 67 43.7737 64.0632 49.1631 58.8356C43.1983 41.2852 37.5332 32.9391 22.8289 21.0115L12.747 14.4918C12.4735 14.3151 12.1669 14.1924 11.8445 14.1308C11.5221 14.0692 11.1903 14.0699 10.8682 14.1329C10.5461 14.1958 10.24 14.3197 9.96727 14.4976C9.6946 14.6754 9.46076 14.9036 9.27914 15.1692C3.19115 24.0702 0.10498 32.1303 0.10498 39.1249C0.10498 46.5178 3.13268 53.608 8.52202 58.8356C13.9114 64.0632 21.2209 67 28.8425 67Z" fill="#51A6E3"/>
</svg>
