<svg width="20" height="20" viewBox="0 0 20 20" fill="none" xmlns="http://www.w3.org/2000/svg">
<path fill-rule="evenodd" clip-rule="evenodd" d="M12 0C11.2044 0 10.4413 0.316071 9.87868 0.87868C9.31607 1.44129 9 2.20435 9 3H5C4.46957 3 3.96086 3.21071 3.58579 3.58579C3.21071 3.96086 3 4.46957 3 5V8C2.20435 8 1.44129 8.31607 0.87868 8.87868C0.316071 9.44129 0 10.2044 0 11C0 11.7956 0.316071 12.5587 0.87868 13.1213C1.44129 13.6839 2.20435 14 3 14V18C3 18.5304 3.21071 19.0391 3.58579 19.4142C3.96086 19.7893 4.46957 20 5 20H8.25C8.71413 20 9.15925 19.8156 9.48744 19.4874C9.81563 19.1592 10 18.7141 10 18.25C10 17.56 10.56 17 11.25 17H12.75C13.44 17 14 17.56 14 18.25C14 19.216 14.784 20 15.75 20H18C18.5304 20 19.0391 19.7893 19.4142 19.4142C19.7893 19.0391 20 18.5304 20 18V14.75C20 14.2859 19.8156 13.8408 19.4874 13.5126C19.1592 13.1844 18.7141 13 18.25 13C17.56 13 17 12.44 17 11.75V10.25C17 9.56 17.56 9 18.25 9C18.7141 9 19.1592 8.81563 19.4874 8.48744C19.8156 8.15925 20 7.71413 20 7.25V5C20 4.46957 19.7893 3.96086 19.4142 3.58579C19.0391 3.21071 18.5304 3 18 3H15C15 2.20435 14.6839 1.44129 14.1213 0.87868C13.5587 0.316071 12.7956 0 12 0Z" fill="black"/>
</svg>
