<svg width="10" height="18" viewBox="0 0 10 18" fill="none" xmlns="http://www.w3.org/2000/svg">
<path d="M8.28752 17.75C8.10078 17.7506 7.91626 17.7094 7.74754 17.6294C7.57882 17.5494 7.43017 17.4325 7.31252 17.2875L1.27502 9.78751C1.09117 9.56384 0.990662 9.28329 0.990662 8.99376C0.990662 8.70423 1.09117 8.42367 1.27502 8.20001L7.52502 0.700009C7.73719 0.444738 8.04208 0.284208 8.37262 0.253733C8.70315 0.223258 9.03225 0.325336 9.28752 0.537509C9.54279 0.749682 9.70332 1.05457 9.7338 1.3851C9.76427 1.71564 9.66219 2.04474 9.45002 2.30001L3.86252 9.00001L9.26252 15.7C9.41537 15.8835 9.51247 16.1069 9.54232 16.3439C9.57217 16.5808 9.53352 16.8213 9.43095 17.037C9.32838 17.2526 9.16618 17.4344 8.96354 17.5608C8.76091 17.6871 8.52631 17.7528 8.28752 17.75Z" fill="#707070"/>
</svg>
