<svg width="19" height="19" viewBox="0 0 19 19" fill="none" xmlns="http://www.w3.org/2000/svg">
<path d="M18.9397 8.40575C18.8993 8.30915 18.8415 8.22128 18.7679 8.14765L16.3937 5.77343C16.0842 5.46468 15.5838 5.46468 15.2743 5.77343C14.9648 6.08296 14.9648 6.58409 15.2743 6.89284L16.2979 7.91646H11.8756C11.4379 7.91646 11.084 8.27112 11.084 8.70812C11.084 9.14512 11.4379 9.49977 11.8756 9.49977H16.2979L15.2743 10.5234C14.9647 10.8329 14.9647 11.3341 15.2743 11.6428C15.4286 11.798 15.6313 11.8748 15.834 11.8748C16.0367 11.8748 16.2393 11.798 16.3937 11.6428L18.7679 9.26858C18.8415 9.19573 18.8993 9.10786 18.9397 9.01048C19.0196 8.8174 19.0196 8.5989 18.9397 8.40575Z" fill="#36713B"/>
<path d="M13.4593 11.0833C13.0215 11.0833 12.6676 11.438 12.6676 11.875V15.8333H9.50098V3.16665C9.50098 2.81753 9.27138 2.50878 8.93651 2.40825L6.18704 1.58335H12.6676V5.54169C12.6676 5.97869 13.0215 6.33335 13.4593 6.33335C13.8971 6.33335 14.2509 5.97869 14.2509 5.54169V0.791691C14.2509 0.354654 13.8971 0 13.4593 0H0.792631C0.764131 0 0.738785 0.011875 0.711102 0.0150293C0.673881 0.019 0.639852 0.0253086 0.604227 0.0340293C0.521102 0.0554043 0.445881 0.087875 0.375447 0.132184C0.358043 0.143279 0.336668 0.144059 0.320043 0.156713C0.31366 0.1615 0.311285 0.170221 0.304939 0.174971C0.21866 0.243029 0.146631 0.326154 0.0943809 0.425125C0.0832852 0.4465 0.0809102 0.469471 0.0722266 0.491625C0.0468809 0.551779 0.0191973 0.610375 0.00969727 0.676875C0.00572656 0.700625 0.0128516 0.722779 0.0120723 0.74575C0.011293 0.761596 0.000976562 0.775846 0.000976562 0.791654V16.625C0.000976562 17.0026 0.267756 17.3272 0.637477 17.4008L8.55413 18.9842C8.6056 18.9953 8.65785 19 8.70928 19C8.89056 19 9.06869 18.9375 9.21119 18.8203C9.39406 18.6699 9.50094 18.4458 9.50094 18.2083V17.4167H13.4593C13.8971 17.4167 14.2509 17.062 14.2509 16.625V11.875C14.2509 11.438 13.8971 11.0833 13.4593 11.0833Z" fill="#36713B"/>
</svg>
